<svg width="300" height="300" viewBox="0 0 300 300" fill="none" xmlns="http://www.w3.org/2000/svg">
<path d="M286.608 165.996C286.608 165.996 286.566 81.438 241.278 41.052C201.3 5.4 146.262 -1.842 109.302 39.384C96.132 54.072 80.208 69.384 63.666 79.644C45.126 91.152 23.466 96.408 10.824 134.508C-1.818 172.608 17.748 228.486 46.416 248.268C75.084 268.05 120.006 260.7 158.616 252.426C197.226 244.152 283.242 270.924 286.608 165.996Z" fill="#92E3A9"/>
<path opacity="0.7" d="M286.608 165.996C286.608 165.996 286.566 81.438 241.278 41.052C201.3 5.4 146.262 -1.842 109.302 39.384C96.132 54.072 80.208 69.384 63.666 79.644C45.126 91.152 23.466 96.408 10.824 134.508C-1.818 172.608 17.748 228.486 46.416 248.268C75.084 268.05 120.006 260.7 158.616 252.426C197.226 244.152 283.242 270.924 286.608 165.996Z" fill="white"/>
<path opacity="0.16" d="M148.956 286.686C199.785 286.686 240.99 281.66 240.99 275.46C240.99 269.26 199.785 264.234 148.956 264.234C98.127 264.234 56.922 269.26 56.922 275.46C56.922 281.66 98.127 286.686 148.956 286.686Z" fill="black"/>
<path opacity="0.07" d="M241.278 41.046C234.99 35.4174 228.167 30.4157 220.908 26.112L161.016 116.112L242.4 42.078C242.034 41.73 241.662 41.4 241.278 41.046ZM187.68 13.086C178.341 11.1412 168.742 10.7741 159.282 12L161.016 116.106L187.68 13.086ZM124.908 25.476C119.188 29.4932 113.953 34.1604 109.308 39.384C107.684 41.204 106.014 43.028 104.298 44.856L161.022 116.118L124.908 25.476ZM75.774 71.208C71.8845 74.2218 67.8454 77.0374 63.672 79.644C54.69 85.2 45 89.322 35.91 96.408L161.016 116.118L75.774 71.208ZM7.13399 154.086C6.03599 170.328 9.11399 187.908 15.072 203.808L161.016 116.118L7.13399 154.086ZM161.016 116.118L56.826 254.016C71.982 260.616 90.204 261.816 109.086 260.364L161.016 116.118ZM161.016 116.118L165.972 251.286C176.682 250.14 189.762 250.494 203.31 249.912L161.016 116.118ZM277.98 209.778L161.016 116.118L252.084 238.884C262.686 232.95 271.8 223.836 277.98 209.778ZM282.93 129L161.016 116.118L286.494 161.556C285.993 150.64 284.803 139.766 282.93 129ZM263.184 69.192L161.016 116.118L273.906 93.51C271.02 85.1176 267.434 76.9829 263.184 69.192Z" fill="black"/>
<path d="M266.76 201.168C266.76 201.168 260.286 198.978 258.36 197.64C256.434 196.302 251.508 191.358 250.362 187.548C249.373 184.031 248.716 180.429 248.4 176.79C248.112 173.838 246.876 173.076 245.064 175.362C243.252 177.648 242.664 181.362 243.162 183.762C243.66 186.162 245.16 188.904 244.962 189.384C244.764 189.864 244.482 190.812 244.482 190.812C244.482 190.812 238.674 190.146 235.44 189.384C232.206 188.622 229.632 188.334 229.44 189.858C229.248 191.382 229.914 193.764 230.106 195.384C230.298 197.004 232.77 204.144 234.012 205.758C234.892 207.014 235.913 208.165 237.054 209.19C237.816 209.76 237.816 210.234 239.628 210.426C241.163 210.564 242.689 210.786 244.2 211.092C244.866 211.284 245.532 211.95 248.676 211.854C250.652 211.786 252.622 211.596 254.574 211.284L264 214.8L266.76 201.168Z" fill="white" stroke="#263238" stroke-width="0.75" stroke-miterlimit="10"/>
<path d="M263.712 199.356L259.806 216.306L266.19 218.874L269.424 201.264L263.712 199.356Z" fill="white" stroke="#263238" stroke-width="0.75" stroke-miterlimit="10"/>
<path d="M279.792 202.596L267.33 199.548L262.758 219.732L279.72 227.646L279.792 226.116V202.596Z" fill="#263238" stroke="#263238" stroke-width="0.75" stroke-miterlimit="10"/>
<path d="M244.098 191.646C244.098 191.646 243.24 196.8 243.24 198C243.24 199.2 245.904 202.572 246.84 202.758" stroke="#263238" stroke-width="0.75" stroke-miterlimit="10"/>
<path d="M242.19 204.6C242.19 204.6 243.528 205.074 243.144 206.22C242.76 207.366 239.904 208.98 238.572 209.742C237.24 210.504 236.772 210.408 235.242 209.55C234.343 209.053 233.662 208.237 233.334 207.264C234.294 207.24 235.25 207.146 236.196 206.982L242.19 204.6Z" fill="white" stroke="#263238" stroke-width="0.75" stroke-miterlimit="10"/>
<path d="M231.24 202.116C231.24 202.116 231.24 206.496 232.29 206.88C233.293 207.267 234.359 207.46 235.434 207.45C236.1 207.354 240.576 205.83 241.434 205.26C242.292 204.69 243.15 203.46 242.676 202.308L242.196 201.168C240.749 201.416 239.284 201.542 237.816 201.546C235.416 201.546 231.438 200.784 231.15 201.072C230.862 201.36 231.24 202.116 231.24 202.116Z" fill="white" stroke="#263238" stroke-width="0.75" stroke-miterlimit="10"/>
<path d="M229.8 196.2C229.61 196.321 229.456 196.492 229.356 196.694C229.256 196.896 229.212 197.121 229.23 197.346C229.23 198.204 228.09 200.772 229.422 201.63C230.754 202.488 234.942 203.154 235.8 203.154C236.658 203.154 241.704 201.354 242.178 201.156C242.652 200.958 242.658 199.248 242.466 198.582C242.274 197.916 240.564 197.724 240.564 197.724C240.564 197.724 233.244 197.55 229.8 196.2Z" fill="white" stroke="#263238" stroke-width="0.75" stroke-miterlimit="10"/>
<path d="M232.29 190.404C232.29 190.404 235.338 192.69 235.89 192.882L240.558 194.502C240.558 194.502 241.158 194.784 241.158 195.93C241.147 196.424 240.96 196.897 240.629 197.264C240.299 197.63 239.848 197.866 239.358 197.928C238.41 198.12 234.978 198.69 233.742 198.216C232.057 197.383 230.435 196.428 228.888 195.36C228.03 194.76 227.934 194.022 228.408 192.96C228.82 191.934 229.171 190.884 229.458 189.816" fill="white"/>
<path d="M232.29 190.404C232.29 190.404 235.338 192.69 235.89 192.882L240.558 194.502C240.558 194.502 241.158 194.784 241.158 195.93C241.147 196.424 240.96 196.897 240.629 197.264C240.299 197.63 239.848 197.866 239.358 197.928C238.41 198.12 234.978 198.69 233.742 198.216C232.057 197.383 230.435 196.428 228.888 195.36C228.03 194.76 227.934 194.022 228.408 192.96C228.82 191.934 229.171 190.884 229.458 189.816" stroke="#263238" stroke-width="0.75" stroke-miterlimit="10"/>
<path d="M247.8 53.928C247.8 53.928 241.254 55.914 238.932 55.938C236.61 55.962 229.698 54.816 226.554 52.38C223.693 50.1057 221.054 47.5664 218.67 44.796C216.72 42.558 215.268 42.66 215.124 45.57C214.98 48.48 216.678 51.834 218.454 53.496C220.23 55.158 223.068 56.496 223.194 57.012C223.32 57.528 223.638 58.452 223.638 58.452C223.638 58.452 218.526 61.29 215.448 62.55C212.37 63.81 210.114 65.082 210.846 66.432C211.578 67.782 213.504 69.33 214.602 70.536C215.7 71.742 221.868 76.104 223.818 76.704C225.265 77.2093 226.765 77.5495 228.288 77.718C229.242 77.718 229.488 78.126 231.102 77.232C232.428 76.4469 233.798 75.7397 235.206 75.114C235.86 74.88 236.79 75.036 239.286 73.128C240.855 71.9219 242.348 70.6194 243.756 69.228L253.476 66.606L247.8 53.928Z" fill="white" stroke="#263238" stroke-width="0.75" stroke-miterlimit="10"/>
<path d="M244.26 54.228L250.95 70.284L257.634 68.664L250.014 52.452L244.26 54.228Z" fill="white" stroke="#263238" stroke-width="0.75" stroke-miterlimit="10"/>
<path d="M259.224 47.508L247.314 52.278L255.342 71.352L273.738 67.92L272.91 66.636L259.224 47.508Z" fill="#263238" stroke="#263238" stroke-width="0.75" stroke-miterlimit="10"/>
<path d="M223.8 59.4C223.8 59.4 226.098 64.08 226.8 65.088C227.502 66.096 231.6 67.254 232.512 66.852" stroke="#263238" stroke-width="0.75" stroke-miterlimit="10"/>
<path d="M229.8 71.01C229.8 71.01 231.162 70.62 231.516 71.772C231.87 72.924 230.49 75.9 229.848 77.298C229.206 78.696 228.768 78.894 227.028 79.098C226.008 79.2189 224.98 78.9512 224.148 78.348C224.915 77.7714 225.637 77.1376 226.308 76.452L229.8 71.01Z" fill="white" stroke="#263238" stroke-width="0.75" stroke-miterlimit="10"/>
<path d="M219.462 75.366C219.462 75.366 222.006 78.93 223.062 78.63C224.103 78.3605 225.083 77.8985 225.954 77.268C226.44 76.8 229.194 72.96 229.554 71.994C229.914 71.028 229.896 69.528 228.846 68.874L227.796 68.22C226.763 69.2649 225.645 70.2222 224.454 71.082C222.516 72.462 218.82 74.172 218.754 74.568C218.688 74.964 219.462 75.366 219.462 75.366Z" fill="white" stroke="#263238" stroke-width="0.75" stroke-miterlimit="10"/>
<path d="M214.86 71.4C214.777 71.6099 214.752 71.8382 214.788 72.061C214.824 72.2839 214.919 72.4929 215.064 72.666C215.562 73.362 216.126 76.116 217.71 76.038C219.294 75.96 223.11 74.064 223.788 73.566C224.466 73.068 227.532 68.658 227.814 68.226C228.096 67.794 227.088 66.426 226.548 65.97C226.008 65.514 224.502 66.384 224.502 66.384C224.502 66.384 218.4 70.488 214.86 71.4Z" fill="white" stroke="#263238" stroke-width="0.75" stroke-miterlimit="10"/>
<path d="M213.498 65.232C213.498 65.232 217.302 65.316 217.878 65.142C218.454 64.968 222.618 63.744 222.618 63.744C222.618 63.744 223.248 63.642 223.914 64.572C224.195 64.9802 224.318 65.4765 224.261 65.9686C224.203 66.4608 223.969 66.9154 223.602 67.248C222.942 67.962 220.488 70.416 219.204 70.752C217.347 71.0546 215.47 71.223 213.588 71.256C212.562 71.256 212.04 70.722 211.788 69.594C211.524 68.5217 211.198 67.4659 210.81 66.432" fill="white"/>
<path d="M213.498 65.232C213.498 65.232 217.302 65.316 217.878 65.142C218.454 64.968 222.618 63.744 222.618 63.744C222.618 63.744 223.248 63.642 223.914 64.572C224.195 64.9802 224.318 65.4765 224.261 65.9686C224.203 66.4608 223.969 66.9154 223.602 67.248C222.942 67.962 220.488 70.416 219.204 70.752C217.347 71.0546 215.47 71.223 213.588 71.256C212.562 71.256 212.04 70.722 211.788 69.594C211.524 68.5217 211.198 67.4659 210.81 66.432" stroke="#263238" stroke-width="0.75" stroke-miterlimit="10"/>
<path d="M38.304 199.014C38.304 199.014 44.778 196.824 46.704 195.492C48.63 194.16 53.538 189.204 54.678 185.4C55.684 181.885 56.355 178.283 56.682 174.642C56.964 171.69 58.206 170.928 60.012 173.214C61.818 175.5 62.412 179.214 61.914 181.614C61.416 184.014 59.916 186.756 60.114 187.23C60.312 187.704 60.588 188.658 60.588 188.658C60.588 188.658 66.396 187.992 69.636 187.23C72.876 186.468 75.444 186.18 75.636 187.704C75.828 189.228 75.156 191.61 74.97 193.23C74.784 194.85 72.3 201.99 71.064 203.61C70.1825 204.865 69.1598 206.014 68.016 207.036C67.254 207.636 67.254 208.086 65.448 208.272C63.9132 208.412 62.387 208.635 60.876 208.938C60.21 209.13 59.544 209.796 56.4 209.7C54.4221 209.632 52.4503 209.442 50.496 209.13L41.07 212.652L38.304 199.014Z" fill="white" stroke="#263238" stroke-width="0.75" stroke-miterlimit="10"/>
<path d="M41.352 197.202L45.252 214.152L38.874 216.726L35.634 199.11L41.352 197.202Z" fill="white" stroke="#263238" stroke-width="0.75" stroke-miterlimit="10"/>
<path d="M25.266 200.442L37.728 197.394L42.3 217.578L25.344 225.492L25.266 223.962V200.442Z" fill="#263238" stroke="#263238" stroke-width="0.75" stroke-miterlimit="10"/>
<path d="M60.966 189.492C60.966 189.492 61.824 194.634 61.824 195.87C61.824 197.106 59.154 200.442 58.224 200.634" stroke="#263238" stroke-width="0.75" stroke-miterlimit="10"/>
<path d="M62.868 202.44C62.868 202.44 61.536 202.92 61.914 204.06C62.292 205.2 65.154 206.82 66.486 207.582C67.818 208.344 68.286 208.248 69.822 207.39C70.7206 206.897 71.3999 206.083 71.724 205.11C70.7661 205.087 69.8113 204.99 68.868 204.822L62.868 202.44Z" fill="white" stroke="#263238" stroke-width="0.75" stroke-miterlimit="10"/>
<path d="M73.8 199.968C73.8 199.968 73.8 204.348 72.756 204.726C71.7561 205.126 70.6888 205.329 69.612 205.326C68.946 205.23 64.47 203.712 63.612 203.136C62.754 202.56 61.896 201.336 62.376 200.184L62.85 199.044C64.2969 199.292 65.762 199.418 67.23 199.422C69.63 199.422 73.608 198.66 73.896 198.948C74.184 199.236 73.8 199.968 73.8 199.968Z" fill="white" stroke="#263238" stroke-width="0.75" stroke-miterlimit="10"/>
<path d="M75.246 194.064C75.444 194.177 75.6057 194.345 75.712 194.547C75.8182 194.749 75.8647 194.977 75.846 195.204C75.846 196.062 76.992 198.63 75.66 199.488C74.328 200.346 70.104 201 69.246 201C68.388 201 63.342 199.2 62.868 199.002C62.394 198.804 62.394 197.094 62.586 196.428C62.778 195.762 64.488 195.576 64.488 195.576C64.488 195.576 71.82 195.396 75.246 194.064Z" fill="white" stroke="#263238" stroke-width="0.75" stroke-miterlimit="10"/>
<path d="M72.774 188.256C72.774 188.256 69.726 190.536 69.174 190.728C68.622 190.92 64.506 192.348 64.506 192.348C64.506 192.348 63.906 192.636 63.906 193.776C63.9153 194.27 64.1024 194.744 64.4331 195.111C64.7637 195.478 65.2157 195.713 65.706 195.774C66.66 195.966 70.086 196.536 71.328 196.062C73.0199 195.229 74.6482 194.272 76.2 193.2C77.058 192.63 77.154 191.868 76.674 190.8C76.2649 189.773 75.9163 188.724 75.63 187.656" fill="white"/>
<path d="M72.774 188.256C72.774 188.256 69.726 190.536 69.174 190.728C68.622 190.92 64.506 192.348 64.506 192.348C64.506 192.348 63.906 192.636 63.906 193.776C63.9153 194.27 64.1024 194.744 64.4331 195.111C64.7637 195.478 65.2157 195.713 65.706 195.774C66.66 195.966 70.086 196.536 71.328 196.062C73.0199 195.229 74.6482 194.272 76.2 193.2C77.058 192.63 77.154 191.868 76.674 190.8C76.2649 189.773 75.9163 188.724 75.63 187.656" stroke="#263238" stroke-width="0.75" stroke-miterlimit="10"/>
<path d="M45.342 59.628C45.342 59.628 51.882 61.614 54.21 61.638C56.538 61.662 63.438 60.516 66.588 58.08C69.4488 55.8057 72.0885 53.2664 74.472 50.496C76.422 48.258 77.874 48.36 78.012 51.27C78.15 54.18 76.458 57.534 74.688 59.196C72.918 60.858 70.068 62.196 69.948 62.712C69.828 63.228 69.504 64.152 69.504 64.152C69.504 64.152 74.616 66.984 77.694 68.25C80.772 69.516 83.028 70.776 82.296 72.126C81.564 73.476 79.638 75.024 78.54 76.23C77.442 77.436 71.274 81.804 69.324 82.404C67.877 82.9093 66.3775 83.2495 64.854 83.418C63.9 83.418 63.654 83.826 62.04 82.926C60.711 82.1469 59.341 81.4399 57.936 80.808C57.282 80.58 56.352 80.73 53.85 78.828C52.2833 77.621 50.7925 76.3185 49.386 74.928L39.666 72.306L45.342 59.628Z" fill="white" stroke="#263238" stroke-width="0.75" stroke-miterlimit="10"/>
<path d="M48.876 59.928L42.186 75.984L35.502 74.364L43.122 58.152L48.876 59.928Z" fill="white" stroke="#263238" stroke-width="0.75" stroke-miterlimit="10"/>
<path d="M33.912 53.208L45.822 57.978L37.794 77.052L19.398 73.62L20.226 72.33L33.912 53.208Z" fill="#263238" stroke="#263238" stroke-width="0.75" stroke-miterlimit="10"/>
<path d="M69.318 65.07C69.318 65.07 67.02 69.75 66.318 70.752C65.616 71.754 61.518 72.918 60.606 72.552" stroke="#263238" stroke-width="0.75" stroke-miterlimit="10"/>
<path d="M63.33 76.71C63.33 76.71 61.968 76.32 61.614 77.472C61.26 78.624 62.64 81.6 63.282 82.992C63.924 84.384 64.362 84.588 66.102 84.792C67.1219 84.9094 68.1489 84.6419 68.982 84.042C68.2152 83.4654 67.4931 82.8316 66.822 82.146L63.33 76.71Z" fill="white" stroke="#263238" stroke-width="0.75" stroke-miterlimit="10"/>
<path d="M73.674 81.066C73.674 81.066 71.124 84.63 70.074 84.33C69.0316 84.0626 68.0499 83.5983 67.182 82.962C66.696 82.5 63.942 78.654 63.582 77.694C63.222 76.734 63.246 75.222 64.296 74.574L65.346 73.92C66.3765 74.9656 67.4946 75.9211 68.688 76.776C70.626 78.162 74.322 79.872 74.388 80.268C74.454 80.664 73.674 81.066 73.674 81.066Z" fill="white" stroke="#263238" stroke-width="0.75" stroke-miterlimit="10"/>
<path d="M78.27 77.094C78.3552 77.3031 78.3818 77.5314 78.3469 77.7545C78.312 77.9776 78.2169 78.1869 78.072 78.36C77.574 79.056 77.004 81.81 75.426 81.732C73.848 81.654 70.026 79.758 69.348 79.26C68.67 78.762 65.598 74.352 65.322 73.92C65.046 73.488 66.042 72.12 66.588 71.664C67.134 71.208 68.634 72.072 68.634 72.072C68.634 72.072 74.706 76.2 78.27 77.094Z" fill="white" stroke="#263238" stroke-width="0.75" stroke-miterlimit="10"/>
<path d="M79.638 70.932C79.638 70.932 75.828 71.016 75.252 70.842C74.676 70.668 70.518 69.438 70.518 69.438C70.518 69.438 69.918 69.342 69.222 70.272C68.9417 70.68 68.8183 71.1755 68.8745 71.6672C68.9308 72.159 69.1628 72.6139 69.528 72.948C70.194 73.656 72.648 76.116 73.932 76.452C75.7893 76.7557 77.6663 76.9222 79.548 76.95C80.574 76.986 81.096 76.422 81.318 75.294C81.582 74.2198 81.9086 73.162 82.296 72.126" fill="white"/>
<path d="M79.638 70.932C79.638 70.932 75.828 71.016 75.252 70.842C74.676 70.668 70.518 69.438 70.518 69.438C70.518 69.438 69.918 69.342 69.222 70.272C68.9417 70.68 68.8183 71.1755 68.8745 71.6672C68.9308 72.159 69.1628 72.6139 69.528 72.948C70.194 73.656 72.648 76.116 73.932 76.452C75.7893 76.7557 77.6663 76.9222 79.548 76.95C80.574 76.986 81.096 76.422 81.318 75.294C81.582 74.2198 81.9086 73.162 82.296 72.126" stroke="#263238" stroke-width="0.75" stroke-miterlimit="10"/>
<path d="M133.2 146.61C133.2 146.61 129 165.006 128.832 173.658C128.664 182.31 129.144 213.492 129.306 220.182C129.468 226.872 132.408 248.586 132.408 250.542C132.408 252.498 132.9 256.254 132.9 256.254L131.592 263.274C130.312 264.263 128.947 265.137 127.512 265.884C124.572 267.516 121.146 269.64 120.168 270.78C120.049 270.917 119.964 271.081 119.922 271.258C119.879 271.434 119.88 271.619 119.923 271.795C119.967 271.972 120.052 272.135 120.172 272.272C120.292 272.408 120.443 272.514 120.612 272.58C121.776 273.036 123.001 273.313 124.248 273.402C127.02 273.564 131.592 273.564 134.04 272.91C136.488 272.256 138.45 270.138 139.59 269.31L140.736 268.494L140.898 270.294C141.448 270.213 141.992 270.103 142.53 269.964C143.728 269.619 144.879 269.127 145.956 268.5C145.956 268.5 146.118 265.722 146.118 264.09C146.118 262.458 145.302 259.518 145.14 258.87C144.978 258.222 145.14 252.336 144.654 250.38C144.168 248.424 143.838 248.91 143.508 245.322C143.178 241.734 146.118 207.774 145.956 206.796C145.794 205.818 150.108 176.4 150.108 176.4C150.108 176.4 158.358 214.8 160.968 222.15C163.578 229.5 164.886 243.696 164.886 244.68C164.886 245.664 166.356 257.244 167.01 258.882C167.664 260.52 169.458 265.572 169.458 265.572C169.458 265.572 172.068 269.49 173.208 271.446C174.348 273.402 178.272 275.046 181.206 275.526C184.14 276.006 186.432 276.18 186.606 272.262C186.78 268.344 185.304 265.734 182.85 263.94C180.396 262.146 179.916 260.514 179.916 260.514C180.094 258.117 180.094 255.711 179.916 253.314C179.586 250.536 177.792 248.412 177.63 242.7C177.468 236.988 176.322 206.952 175.344 202.218C174.366 197.484 173.076 165.816 173.238 161.418C173.4 157.02 172.824 144.732 172.824 144.732L133.08 144.282L133.2 146.61Z" fill="#263238" stroke="#263238" stroke-width="0.75" stroke-miterlimit="10"/>
<path d="M148.8 80.844C148.8 80.844 142.734 84.444 138.438 86.568C134.142 88.692 128.898 89.928 128.364 91.134C127.83 92.34 118.56 112.092 116.814 114.774C115.068 117.456 110.904 122.7 111.708 125.652C112.512 128.604 115.872 132.636 118.02 132.372C120.168 132.108 124.47 130.89 126.216 127.806C127.962 124.722 132.126 114.774 132.126 114.774C132.126 114.774 132.798 124.044 132.66 128.61C132.522 133.176 132.528 136.938 132.258 139.218C131.988 141.498 130.782 144.324 131.316 145.128C131.85 145.932 132.516 146.742 133.2 146.61C133.884 146.478 143.946 146.34 147 146.472C150.054 146.604 164.058 146.472 167.016 146.61C169.974 146.748 172.524 145.266 172.788 144.726C173.052 144.186 173.598 143.382 173.328 140.43C173.058 137.478 173.598 128.478 174.402 124.986C175.206 121.494 180.042 108.06 180.042 108.06C180.042 108.06 192.804 118.134 195.492 118.938C198.18 119.742 205.428 118.536 207.846 115.584C210.264 112.632 211.068 110.34 209.592 108.33C208.116 106.32 202.74 104.436 197.1 98.388C191.46 92.34 189.3 89.526 185.418 87.642C181.536 85.758 173.598 83.214 171.714 82.404C169.83 81.594 169.314 81.204 168.114 80.658C166.914 80.112 164.082 79.05 158.844 78.912C155.404 78.9125 151.995 79.5682 148.8 80.844Z" fill="#92E3A9" stroke="#263238" stroke-width="0.75" stroke-miterlimit="10"/>
<path d="M129.414 105.258C129.6 105.906 132.12 114.774 132.12 114.774L128.4 107.4" stroke="#263238" stroke-width="0.75" stroke-miterlimit="10"/>
<path d="M180.066 108.06C179.508 108.06 174.228 105.06 174.228 105.06" stroke="#263238" stroke-width="0.75" stroke-miterlimit="10"/>
<path d="M171.54 104.706C171.54 104.706 173.67 107.484 175.524 108.036" stroke="#263238" stroke-width="0.75" stroke-miterlimit="10"/>
<path d="M148.044 89.082L149.73 95.448C149.73 95.448 144.39 122.142 143.55 126.648C143.038 129.37 142.694 132.122 142.518 134.886L147.198 144.156L153.102 134.136C153.102 134.136 152.538 121.494 152.352 111.384C152.166 101.274 152.538 96.384 152.442 96.12C152.346 95.856 158.346 91.434 158.346 91.434C158.346 91.434 161.808 87.594 161.994 86.94C162.18 86.286 159.564 87.126 158.994 87.69C158.356 88.2298 157.6 88.6125 156.787 88.8074C155.975 89.0023 155.127 89.0038 154.314 88.812C151.878 88.344 148.692 85.632 148.224 86.94C147.944 87.6182 147.881 88.3666 148.044 89.082Z" fill="#263238" stroke="#263238" stroke-width="0.75" stroke-miterlimit="10"/>
<path d="M152.07 78.222C151.788 78.408 149.544 78.972 148.794 80.844C148.044 82.716 144.204 91.332 143.082 92.736C141.96 94.14 143.736 93.576 145.236 92.64C146.736 91.704 148.044 88.056 148.884 89.64C149.724 91.224 152.166 91.884 152.166 91.884C152.166 91.884 157.218 90.948 158.346 90.198C159.115 89.6615 159.835 89.0592 160.5 88.398C160.5 88.398 164.808 94.86 166.02 95.418C167.232 95.976 167.43 95.046 167.52 94.014C167.964 90.2522 168.684 86.5282 169.674 82.872C170.874 78.846 168.552 77.532 167.052 75.852C165.552 74.172 163.866 75.288 162.186 75.474C160.506 75.66 152.07 78.222 152.07 78.222Z" fill="#92E3A9" stroke="#263238" stroke-width="0.75" stroke-miterlimit="10"/>
<path d="M149.502 49.386C149.502 49.386 146.574 53.832 147.102 54.912C147.63 55.992 147.642 57.408 147.102 58.164C146.694 58.661 146.396 59.2388 146.227 59.8593C146.059 60.4798 146.024 61.1289 146.124 61.764C146.34 63.606 145.26 72.924 146.886 74.01C147.932 74.6902 149.058 75.2365 150.24 75.636C150.24 75.636 152.082 91.236 152.736 90.804C153.39 90.372 162.72 80.814 163.8 78.75C164.88 76.686 166.2 73.77 166.2 73.77C166.2 73.77 169.884 66.726 172.05 63.798C174.216 60.87 176.712 55.458 175.956 52.638C175.2 49.818 171.294 47.76 169.452 46.242C167.61 44.724 168.804 41.262 166.2 39.528C163.596 37.794 160.458 37.362 158.4 38.118C156.342 38.874 156.234 40.518 153.738 38.874C151.242 37.23 148.866 35.628 145.074 37.47C141.282 39.312 140.52 45.81 142.794 47.544C145.068 49.278 149.502 49.386 149.502 49.386Z" fill="white" stroke="#263238" stroke-width="0.75" stroke-miterlimit="10"/>
<path d="M169.44 46.242C167.598 44.73 168.792 41.262 166.188 39.528C163.584 37.794 160.446 37.362 158.388 38.118C156.33 38.874 156.222 40.518 153.726 38.874C151.23 37.23 148.854 35.628 145.062 37.47C141.27 39.312 140.508 45.81 142.782 47.544C145.056 49.278 149.502 49.386 149.502 49.386C149.502 49.386 152.754 47.868 154.902 46.68C157.05 45.492 161.946 47.436 162.81 48.198C163.674 48.96 162.378 48.414 162.162 49.818C161.946 51.222 164.652 53.508 165.846 54.618C167.04 55.728 165.63 56.46 165.306 57.87C164.982 59.28 166.278 59.82 167.04 59.28C167.802 58.74 170.178 55.68 171.048 57.438C171.918 59.196 173.214 61.77 170.832 63.612C168.45 65.454 166.71 65.022 166.71 65.022C166.71 65.022 165.936 69.714 168.186 70.08C169.354 67.9305 170.634 65.8437 172.02 63.828C174.192 60.906 176.682 55.488 175.926 52.668C175.17 49.848 171.282 47.76 169.44 46.242Z" fill="#263238" stroke="#263238" stroke-width="0.75" stroke-miterlimit="10"/>
<path d="M155.352 55.128C156.043 54.87 156.781 54.7596 157.518 54.804" stroke="#263238" stroke-width="0.5" stroke-miterlimit="10"/>
<path d="M149.808 56.196C149.273 56.3092 148.756 56.4949 148.272 56.748" stroke="#263238" stroke-width="0.5" stroke-miterlimit="10"/>
<path d="M149.844 53.238C150.229 53.9756 150.342 54.8255 150.162 55.638C149.808 56.838 146.454 59.46 146.496 59.97C146.538 60.48 148.464 61.548 148.428 61.98C148.392 62.412 148.272 63.126 148.272 63.126" stroke="#263238" stroke-width="0.75" stroke-miterlimit="10"/>
<path d="M157.176 56.628C157.567 56.628 157.884 56.2385 157.884 55.758C157.884 55.2775 157.567 54.888 157.176 54.888C156.785 54.888 156.468 55.2775 156.468 55.758C156.468 56.2385 156.785 56.628 157.176 56.628Z" fill="#263238" stroke="#263238" stroke-width="0.5" stroke-miterlimit="10"/>
<path d="M155.796 57.18C156.749 56.7811 157.764 56.5536 158.796 56.508" stroke="#263238" stroke-width="0.75" stroke-miterlimit="10"/>
<path d="M153.294 51.96C153.294 51.96 155.616 49.806 157.416 50.238C159.216 50.67 159.9 52.404 159.612 52.41C159.324 52.416 158.412 51.078 157.428 50.976C156.444 50.874 155.742 51.342 154.89 51.774C154.038 52.206 153.516 52.506 153.294 51.96Z" fill="#263238" stroke="#263238" stroke-width="0.5" stroke-miterlimit="10"/>
<path d="M150 53.67C149.973 53.5236 149.916 53.3844 149.832 53.2616C149.748 53.1387 149.639 53.0348 149.512 52.9568C149.386 52.8787 149.244 52.8281 149.096 52.8084C148.949 52.7886 148.799 52.8001 148.656 52.842C147.594 53.004 146.79 54.936 147.114 54.912C147.438 54.888 147.792 53.67 148.62 53.556C149.448 53.442 150 54.738 150 53.67Z" fill="#263238" stroke="#263238" stroke-width="0.5" stroke-miterlimit="10"/>
<path d="M148.2 65.574C148.2 65.574 149.898 65.376 152.106 65.1C154.314 64.824 157.422 64.392 157.938 62.814C158.232 62.0495 158.365 61.2323 158.328 60.414" stroke="#263238" stroke-width="0.75" stroke-miterlimit="10"/>
<path d="M157.134 60.294C157.78 60.2411 158.431 60.2816 159.066 60.414" stroke="#263238" stroke-width="0.75" stroke-miterlimit="10"/>
<path d="M166.23 68.082C165.919 69.5446 165.061 70.8328 163.83 71.682C161.862 72.936 147.408 74.37 147.888 74.55C148.368 74.73 150.246 75.63 150.246 75.63L150.81 80.76C153.086 78.7448 155.618 77.0382 158.34 75.684C163.128 73.2 166.116 72.378 166.23 68.082Z" fill="#263238" stroke="#263238" stroke-width="0.5" stroke-miterlimit="10"/>
<path d="M174.294 138.144C174.294 138.144 171.606 138.012 170.934 137.88C170.262 137.748 168.114 135.726 167.172 135.864C166.23 136.002 164.49 137.88 163.818 139.464C163.146 141.048 162.876 141.864 162.876 141.864C162.876 141.864 160.476 144.012 161.676 145.464C162.876 146.916 164.232 146.406 164.232 146.406C164.232 146.406 165.036 147.75 166.11 147.882C166.907 147.97 167.708 148.016 168.51 148.02C169.205 148.233 169.932 148.324 170.658 148.29C171.232 148.164 171.778 147.936 172.272 147.618C172.842 147.684 173.416 147.539 173.886 147.21C174.378 146.82 176.76 144.384 177.99 143.13L178.716 142.38L174.294 138.144Z" fill="white" stroke="#263238" stroke-width="0.75" stroke-miterlimit="10"/>
<path d="M196.722 110.478C196.722 110.478 191.754 115.986 190.122 118.668C187.521 122.76 184.697 126.706 181.662 130.488C179.784 132.636 173.202 137.88 173.202 137.88C173.202 137.88 175.212 142.176 176.694 142.848C177.556 143.245 178.454 143.558 179.376 143.784L184.776 139.758C184.776 139.758 194.976 131.958 200.376 127.536C205.776 123.114 213.27 117.192 213.81 114.642C214.35 112.092 213.942 110.748 211.26 108.732C209.591 107.497 207.73 106.544 205.752 105.912" fill="#92E3A9"/>
<path d="M196.722 110.478C196.722 110.478 191.754 115.986 190.122 118.668C187.521 122.76 184.697 126.706 181.662 130.488C179.784 132.636 173.202 137.88 173.202 137.88C173.202 137.88 175.212 142.176 176.694 142.848C177.556 143.245 178.454 143.558 179.376 143.784L184.776 139.758C184.776 139.758 194.976 131.958 200.376 127.536C205.776 123.114 213.27 117.192 213.81 114.642C214.35 112.092 213.942 110.748 211.26 108.732C209.591 107.497 207.73 106.544 205.752 105.912" stroke="#263238" stroke-width="0.75" stroke-miterlimit="10"/>
<path d="M177.384 134.52C177.384 134.52 178.584 140.43 182.754 140.43" stroke="#263238" stroke-width="0.75" stroke-miterlimit="10"/>
<path d="M118.86 91.002C118.86 91.002 119.412 95.724 119.694 97.854C119.774 98.9274 120.09 99.97 120.618 100.908C120.618 100.908 116.268 110.628 116.082 110.91C115.896 111.192 111.36 119.706 110.616 120.72C109.872 121.734 108.12 124.98 109.23 127.02C110.34 129.06 112.098 133.224 114.414 133.314C116.73 133.404 119.97 132.018 122.214 130.722C124.458 129.426 125.178 128.592 125.364 124.89C125.55 121.188 125.454 114.522 126.108 111C126.762 107.478 127.218 103.8 127.68 102.39C128.142 100.98 130.83 101.466 131.754 100.908C132.678 100.35 133.512 99.15 135.18 98.406C136.627 97.856 138.2 97.7291 139.716 98.04C140.274 98.226 141.288 97.392 141.012 96.372C140.736 95.352 138.882 94.8 137.028 94.98C135.174 95.16 133.512 95.724 133.05 95.448C132.588 95.172 132.126 90.258 132.126 90.258C132.126 90.258 125.526 90.816 123.234 90.906C120.942 90.996 118.86 91.002 118.86 91.002Z" fill="white" stroke="#263238" stroke-width="0.75" stroke-miterlimit="10"/>
<path d="M129.042 87.39C129.042 87.39 129.138 93.504 129.138 94.056C129.139 94.1848 129.167 94.3119 129.22 94.4294C129.272 94.547 129.348 94.6524 129.444 94.7391C129.539 94.8258 129.651 94.892 129.773 94.9334C129.895 94.9749 130.024 94.9907 130.152 94.98C130.62 94.89 131.82 95.352 132.102 93.966C132.384 92.58 132.93 88.686 132.654 87.762C132.378 86.838 129.876 86.466 129.042 87.39Z" fill="white" stroke="#263238" stroke-width="0.75" stroke-miterlimit="10"/>
<path d="M129.042 87.39C129.042 87.39 126.084 86.652 125.25 87.114C124.416 87.576 125.712 94.152 125.802 94.704C125.892 95.256 127.194 95.538 127.746 95.352C128.298 95.166 129.138 94.8 129.138 94.056C129.138 93.312 129.042 87.39 129.042 87.39Z" fill="white" stroke="#263238" stroke-width="0.75" stroke-miterlimit="10"/>
<path d="M124.602 87.3C124.602 87.3 122.658 86.928 122.1 87.576C121.542 88.224 121.362 89.148 121.542 90.816C121.787 92.4576 122.287 94.0509 123.024 95.538C123.396 96.096 124.602 96.186 125.34 95.91C126.078 95.634 125.802 94.71 125.802 94.71C125.802 94.71 125.43 94.338 125.34 91.47C125.25 88.602 125.25 87.12 125.25 87.12L124.602 87.3Z" fill="white" stroke="#263238" stroke-width="0.75" stroke-miterlimit="10"/>
<path d="M121.362 88.41C120.99 88.5 118.674 88.596 118.584 89.52C118.494 90.444 119.322 94.8 119.694 95.262C120.066 95.724 121.08 95.538 121.452 95.352C121.824 95.166 122.472 94.89 122.376 94.332C122.28 93.774 121.362 88.41 121.362 88.41Z" fill="white" stroke="#263238" stroke-width="0.75" stroke-miterlimit="10"/>
<path d="M122.1 106.74C121.435 106.634 120.809 106.357 120.283 105.936C119.757 105.516 119.349 104.966 119.1 104.34C117.828 107.172 116.208 110.754 116.1 110.94C115.914 111.216 111.378 119.736 110.634 120.75C109.89 121.764 108.138 125.01 109.248 127.05C110.358 129.09 112.116 133.254 114.432 133.344C116.748 133.434 119.988 132.048 122.232 130.752C124.476 129.456 125.196 128.622 125.382 124.92C125.568 121.218 125.472 114.552 126.126 111.03C126.438 109.302 126.726 107.538 126.966 106.014C125.404 106.558 123.753 106.804 122.1 106.74Z" fill="#92E3A9" stroke="#263238" stroke-width="0.75" stroke-miterlimit="10"/>
<path d="M126.36 96.558C126.36 96.558 124.782 97.944 124.602 99.15C124.508 99.9206 124.671 100.701 125.064 101.37" fill="white"/>
<path d="M126.36 96.558C126.36 96.558 124.782 97.944 124.602 99.15C124.508 99.9206 124.671 100.701 125.064 101.37" stroke="#263238" stroke-width="0.75" stroke-miterlimit="10"/>
</svg>
